<?xml version="1.0" encoding="UTF-8"?>
<svg id="Layer_1" xmlns="http://www.w3.org/2000/svg" version="1.1" viewBox="0 0 512 292.4">
  <!-- Generator: Adobe Illustrator 29.6.1, SVG Export Plug-In . SVG Version: 2.1.1 Build 9)  -->
  <defs>
    <style>
      .st0 {
        fill: #fff;
      }
    </style>
  </defs>
  <path class="st0" d="M88.5,210.6c-.6-.1-1.2-.3-2-.5-.8-.2-1.4-.4-1.8-.5-.4-.1-.9-.2-1.4-.4-.5,0-.9-.3-1.2-.4-.3-.1-.5-.3-.8-.5-.2-.2-.5-.5-.5-.7,0-.2,0,.2,0-.8s.4-1.7,1.1-2.2c.8-.5,0-.8,3.1-.8s4.7,1.2,4.9,3.8h5.3c0-2.6-1.1-4.5-2.8-5.8-1.8-1.3-4.1-2-7.1-2s-5.4.7-7.2,2.1c-1.8,1.4-2.7,3.3-2.7,5.6s.1,1.4.3,2c.2.7.4,1.2.6,1.6.2.4.7.8,1.1,1.2s.9.7,1.2.9.9.4,1.6.7c.7.3,1.3.5,1.6.6.3.1.9.3,1.8.5h.9c2.5.7,4.1,1.3,4.9,1.7.8.5,1.2,1,1.2,2s-.4,1.9-1.3,2.5c-.9.6.3.9-3.5.9s-5.8-1.7-5.8-4.9h-5.6c0,2.9,1,5.2,3,6.8s4.7,2.4,8.2,2.4,2.7-.2,3.9-.5c1.2-.3,2.4-.8,3.4-1.4,1-.6,1.8-1.5,2.4-2.6.6-1.1.9-1.8.9-3.9s-.7-3.6-1.9-4.7c-1.3-1.1-3.2-2-5.7-2.7Z"/>
  <path class="st0" d="M95.2,207.6h-.1c0,.1,0,.3,0,.4v-.4Z"/>
  <rect class="st0" x="101.5" y="199.9" width="5.7" height="25.8"/>
  <polygon class="st0" points="133.8 204.2 133.8 199.9 113.5 199.9 113.5 204.7 126.4 204.7 112.5 221.1 112.5 225.7 134.3 225.7 134.3 220.8 119.8 220.8 133.8 204.2"/>
  <polygon class="st0" points="145.3 214.6 157.9 214.6 157.9 210.1 145.3 210.1 145.3 204.5 159 204.5 159 199.9 159 199.8 139.7 199.8 139.7 225.6 159.3 225.6 159.3 220.9 145.3 220.9 145.3 214.6"/>
  <path class="st0" d="M193.9,215.8c-.5,3.9-2.4,5.8-5.9,5.8s-3.8-.8-5-2.4c-1.2-1.6-1.8-3.7-1.8-6.4s.3-2.9.7-4.2c.5-1.2,1.2-2.3,2.3-3.2,1.1-.9,2.5-1.3,4-1.3s2.8.4,3.8,1.2c1,.8,1.6,1.9,1.9,3.3h5.5c-.2-2.7-1.3-4.9-3.4-6.6-2.1-1.7-3.9-2.6-7.7-2.6s-6.9,1.2-9.2,3.8c-2.3,2.5-3.5,5.6-3.5,9.6s1.1,7.3,3.4,9.8c2.2,2.5,5.5,3.7,9,3.7s6.2-1,8.2-2.9c2-1.9,3.1-4.5,3.4-7.7h-.1c0,0-5.6,0-5.6,0Z"/>
  <path class="st0" d="M212.4,199.9l-9.8,25.8h5.8l2.1-5.8h9.6l2,5.8h5.9l-9.8-25.8h-5.8ZM211.9,215.8l3.4-9.6,3.4,9.6h-6.8Z"/>
  <polygon class="st0" points="237.8 199.9 232.1 199.9 232.1 225.7 250.4 225.7 250.4 220.8 250.4 220.8 237.8 220.8 237.8 199.9"/>
  <path class="st0" d="M272.9,215.8c-.5,3.9-2.4,5.8-5.9,5.8s-3.8-.8-5-2.4-1.8-3.7-1.8-6.4.3-2.9.7-4.2c.5-1.2,1.2-2.3,2.3-3.2,1.1-.9,2.5-1.3,4-1.3s2.8.4,3.8,1.2c1,.8,1.6,1.9,1.9,3.3h5.5c-.2-2.7-1.3-4.9-3.4-6.6-2.1-1.7-3.9-2.6-7.7-2.6s-6.9,1.2-9.2,3.8c-2.3,2.5-3.5,5.6-3.5,9.6s1.2,7.3,3.4,9.8,5.5,3.7,9,3.7,6.2-1,8.2-2.9c2-1.9,3.1-4.5,3.4-7.7h0c0,0-5.6,0-5.6,0Z"/>
  <path class="st0" d="M300.6,215.3c0,2.1-.4,3.7-1.1,4.7s-2,1.5-4.1,1.5-3.5-.5-4.3-1.5c-.8-1-1.2-2.6-1.2-4.7v-15.4h-5.7v15.4c0,3.7.9,6.4,2.7,8.2,1.8,1.8,4.6,2.7,8.4,2.7s6.5-.8,8.3-2.6,2.7-4.5,2.7-8.2v-15.5h-5.7v15.4Z"/>
  <polygon class="st0" points="318.9 199.9 313.2 199.9 313.2 225.7 331.5 225.7 331.5 220.8 331.5 220.8 318.9 220.8 318.9 199.9"/>
  <path class="st0" d="M343.7,199.9l-9.8,25.8h5.8l2.1-5.8h9.6l2,5.8h5.9l-9.8-25.8h-5.8ZM343.1,215.8l3.4-9.6,3.4,9.6h-6.8Z"/>
  <polygon class="st0" points="358.6 199.9 358.6 204.7 366.4 204.7 366.4 225.7 372.1 225.7 372.1 204.7 379.9 204.7 379.9 199.9 379.8 199.9 358.6 199.9"/>
  <path class="st0" d="M396.5,199.3h0c-3.9,0-7,1.3-9.3,3.8-2.3,2.4-3.5,5.7-3.5,9.8s1.2,7.3,3.5,9.8c2.3,2.5,5.4,3.7,9.2,3.7s6.9-1.2,9.2-3.7,3.5-5.8,3.5-9.8-1.2-7.3-3.5-9.8c-2.3-2.6-5.3-3.8-9.1-3.8ZM401.6,219.2c-1.3,1.6-3,2.4-5.1,2.4s-3.9-.8-5.2-2.4c-1.3-1.5-1.9-3.8-1.9-6.5s.6-4.8,1.9-6.4c1.3-1.6,3-2.4,5.1-2.4s3.8.8,5.1,2.4c1.3,1.6,1.9,3.7,1.9,6.4s-.6,4.9-1.8,6.5Z"/>
  <path class="st0" d="M437,224.8c0-.3-.3-.8-.3-1.3-.1-.6-.2-1-.2-1.4-.1-.4-.1-.9-.1-1.5v-1.1c-.3-3.5-1.6-5.5-3.8-6,1.3-.5,2.3-1.3,3-2.4.7-1.1,1.1-1.4,1.1-3.9s-.8-4.3-2.4-5.5c-1.7-1.2-3.7-1.8-6.3-1.8h-12.8l-.2-.2v25.8h5.6v-10.1h5c1.8,0,3.1.4,3.8,1.1.8.7,1.2,2,1.4,3.8,0,.1.1.6.1,1.5,0,.9.3,1.7.3,2.3,0,.6.2,1.1.4,1.5h5.9c-.2-.2-.4-.4-.5-.8ZM429.9,210.8c-.9.5-2.1.7-3.7.7h-5.4v-7.1h5.6c1.5,0,2.6.2,3.5.7.9.5,1.3,1.4,1.3,2.8s-.4,2.4-1.3,2.9Z"/>
  <path class="st0" d="M221,149.3h16.5l21,42h37l-25.5-46h-.4c11.8-4.1,24.9-15.7,25-37.3,0,0,0,0,0,0h0c7.8,2.1,16.3,3.4,24,2.6,4.9-.5,9.4-1.9,13.9-3.2,0,0,0,0,0,0h0c0,.1-31.6,83.9-31.6,83.9h36.6l6.2-18h49.4l6.2,18h36.6l-47.1-125.2h-40.6l-10.2,27.1c-7.3,1.7-14,4.9-23,5.5-8.5.6-15.6-1.5-22.4-4.4-5.4-2.2-10.7-5-16.3-7.1v-.3c5.8,2.2,11.2,5,16.7,7.3-5-16.5-19.5-28.1-41.6-28.1h-62.7v125.2h32.3v-42ZM260.4,109.9l-1.4-1.7,1,4.4-1.7-1.4c-.2,1.5,2,4-.3,4.4-.2,0-.2-2.3-1.4-2-.2,1.3,1.5,2.5.9,3.6,0,0-.3.3-.5.4-.4-.8-3.1-5.7-3.1-5.7,0,0,0,0,0,.1h0c-.6,1.5,1.8,4.6,2.2,6.3h0v.8c-.4.5-.9,1-1.5,1,0,0-.2,0-.3,0v-.7c-.2-.6-.6-1.1-1.3-1,0,0,0,0,0,0,0,0,0,0-.1,0,0,.4.3.8.6,1.3,0,0,0,0,0,0,0,0,0,0,0,0,.2.4.4.8.4,1.1,0,0,0,.2,0,.2,0,.2-.4.4-.6.6l-1.2-1.5-.4-.5h0c0,.1-.1,0-.1,0v.5c0,0,.4,1,.6,1.6v.5c.1,0-1,.8-1,.8l-1.4-2s0,0,0,0h0c-.3,0-.4.3-.3.6,0,.6.4,1.4.5,2.1,0,.3-.1.5-.4.7,0,0,0,0,0,0-.6-.1-.8-2-1.7-2h0s0,0-.1,0h0c0,.1,0,0,0,0l.7,2.4-1.4.9c-.4-.3-1.6-4-2.8-4.9-.1-.1-.3-.2-.4-.2h0s0,0,0,0v.2h0c0,0,0,0,0,0l2.3,5.4-1.8.8c-.3-1.5-.7-2-.9-1.9,0,0-.2,0-.2.1-.3.1-.3,1.3.6,2.6l-1.2.2-1.2-1.9s0,0,0,0h0c-.1,0-.2,0-.3.2-.7.5.6,1.9.4,2.5l-1.2.4c-.1-.9-.4-2-1.4-2.4h0s0,0-.1,0v.2s0,0-.1,0l.5,2.7-1.7.3-1.4-2v.2c0,0,0-.2,0-.2v.4c.1,0-.1-.3-.1-.3l.7,2.3-1.6.3c-.4-.1-.5-.5-.6-.7-.2-.4-2-5.3-2.9-5.1,0,0-.2,0-.2,0h0s0,0-.1,0l2,5.7-1.8.3c-.2-.9-.4-2-1.4-2.4h0s0,0-.1,0v.2s0,0-.1,0l.3,2.3c-.3,0-.5,0-.7,0-1.8,0-1.6-1.5-2.8-2.8h0c0,0,0,0-.1,0v.3c0,0,0-.1-.1-.2l.3,2.3c-1.5,0-1.8-1.7-2.7-2.7h0c0,0,0,0,0,0v.2s0,0-.1-.1v1.8c-1-.5-1.4-1.5-1.7-2.6h-1.1,0c0,0-.1,0-.1,0v.7c-2.6-2.4-4.2-5.7-6.1-8.7,6.1,2.8,12.8,3.3,18.9,1.7h-.2c.1,0,.3,0,.4,0,8.7-2.1,16.6-7.8,21-15.8l2.8-7.7c1.3,3.7,3.6,7.4,3.5,11.4,0,.3,0,.5,0,.8ZM220.6,97.7h0c.2-.3.3-.4.5-.6,1-.9,2.2-1.9,3.6-2.8h.1c4.4-3.1,10.2-5.9,14.7-6.2.8,0,1.6,0,2.4,0,6.1,0,12.3,2.2,13.5,8.6,0,.6,0,1.1.2,1.7-.8-.7-1.3-1.5-1.9-2.5-.4-.7-.8-1.5-1.3-2.1-.3-.4-.6-.7-1-1,0,0,0,0,0,0-.7-.6-1.4-1.1-2.3-1.5-.8-.4-1.7-.7-2.7-.9-1.9-.4-4-.4-6.1,0s-2.2.4-3.3.7c-1.7.5-3.3,1.1-5,1.8-1.1.5-2.2,1.1-3.2,1.7-3.2,1.8-6.1,4.1-8.3,6.5,0,0,0,0,0,.1h0c-2.4,2.7-4,5.5-4.3,8.3-.4,3.9,1.1,5.6,2.6,8.9-1.5-.6-2.7-1.4-3.6-2.3-4.8-5,.6-13.4,5.5-18.2ZM252.9,100.1c-.8.2-1.1-.9-1.5-1.4-1.2-1.7-1.8-3.1-3.1-4.2h0c0-.1,0-.2-.1-.2h.1c-.6-.5-1.3-1-2.3-1.4-3.8-1.5-8.7-.8-13.3,1.3h0c-4.9,2.3-9.5,5.8-12.1,9.6,0,.1-.1.2-.2.3v-.3c-.6.9-1.1,1.8-1.5,2.6-1.7,3.8-.7,4.9.5,8.5-4.7-3.4-1.9-9,1.2-12.7.2-.2.3-.4.5-.6,2.2-2.5,5.6-5.2,9.4-7.3,3.5-1.9,7.2-3.3,10.3-3.5.6,0,1.2,0,1.8,0,4.1,0,8,1.2,9.5,4.5,0,0,0,0,.1,0,.6,1.3.9,2.9.7,4.9ZM239.7,93.3c2.2-.2,5,0,7,1.1,1.6.9,2.6,2.4,2.3,4.7-1.3-1.8-2.6-4.1-4.9-4.6h-.1c-.2,0-.3,0-.5,0-.2,0-.5,0-.7,0h.7c-1.6-.3-3.2-.3-4.8,0h.7c-.2,0-.5,0-.7,0-6.1.9-12.2,5.2-16.3,9.2-.1-.6.4-.8.7-1.2,2.5-3,7.5-6.3,12.1-8,1.6-.6,3.1-1,4.5-1.1ZM220.5,113.6h.1c10.6,2.9,22.9-4.7,26.8-14.7,2.5,1.4.4,3.6-.8,5.2-4.1,5.8-11.7,10.2-18.7,11.4-2.2.4-6.4,1.2-7.4-1.2v-.7ZM237.3,102.2c.4-.2.8-.3.9.2,0,1.3-8.4,6.4-10.1,6.6l-.5-1.3c3.5-.7,6.7-4.3,9.7-5.5ZM227.6,106.6c1.1-2.5,8.6-7.2,11.1-6.9,1.2.2,1,1.6.2,1.9-.4.2-.7-.7-1.5-.5-1.1.3-5.6,3.6-7.2,4.5-.8.4-1.7,1-2.6,1ZM240.3,101.1h0c2.4.8-1.1,3.7-2.2,4.7-3.3,2.9-8.3,5.7-12.8,5.8l-.4-1.3c6.1-.4,12.4-3.9,15.4-9.2ZM238.9,98.8c-3-.4-12.1,5.2-12.6,8.3,0,.9.9,1.6.3,2-.6.3-2.1.4-2.4-.4-.2-.9.4-1.6.7-2.3,2-3.8,10.6-9.3,14.9-9.4,4.7,0,2.4,4.7,1.8,4.4-.3-1.3-1.4-2.4-2.7-2.6ZM243.7,99.3l1.6,2c-3.5,5.4-9.9,10.1-16.3,11.5-1.7.4-5.2,1.3-6.2-.5,8.2,1.4,18.3-5.3,20.9-13ZM224.1,103.3c4.1-4.6,14.5-10.2,20.6-7.6,2.5,1,2.1,2.9,1.3,5.1-2.7-3.9-4.4-5.3-9.3-4h0c-3.6.8-13.3,7.4-13.6,11.3,0,.8,1.2,3.4,1,3.6-5-1.2-2.3-5.8,0-8.4ZM220.6,107.5c-.1.4-.2.8-.2,1.2h0c0,.5,0,1,.2,1.4h0c.3.9.9,1.9,1.2,2.9-.5,0-.8-.3-1.2-.5-2.4-1.4-1.4-4.5,0-6.8.2-.3.4-.7.7-1,0,.9-.4,1.8-.7,2.8ZM219.2,116.3c.4,0,.7.2,1.2.2h0c0-.1.2-.1.3-.1h0c12,2.2,26.8-6,29.6-18.1l2,3c.3.9-.4,1.7-.8,2.4-4.6,8.4-19,15.7-28.4,15.1-1.2,0-1.9-.2-2.3-.5-.6-.4-.9-.9-1.5-2ZM220.4,119.7v-.3c.1,0,.2,0,.3,0h0c.5.2.9.3,1.4.3,12.2,1.2,30.4-8.6,31.9-21.9,2.1,1.5.8,3.7,0,5.6-5,10.4-18.7,18.2-30.2,17.3-.8,0-1.9-.2-3-.4-1.7-.4-3.5-1-4.4-1.9,1.4.4,2.7,1,4.1,1.2ZM359.7,95.3h0l2,.9-2.8,9.5-2.5-.4,3.2-10.1ZM384.5,145.1h-31.8l16-47.1,15.8,47.1ZM312.9,99.8c8.7-.4,15.3-3,23.4-5.4.4,0,.9-.3,1.3-.4,0,0,0,0,.1,0v.3c6.7-1.8,14-1.6,20.8.6l-3.5,10-.7-.7.2-1.4h0s0-.1,0-.1l-1.4,1.9-.7-.3.3-1.8s0,0,0,0h0c-.7-.9-1.3,1.9-1.4,1.9l-1.3-.5.3-1.8s0,0,0,0h0c-1.1-.4-1,1.6-1.4,1.9h-1.3l.3-2.2s0,0,0,0h0c-1.3-.4-.7,1.7-1.4,2.2l-1.3-.2.3-7.4h0,0c-.9,0-.6,0-.7.4-.4,2.4-.3,4.9-.7,7.3h-2s0-.1,0-.2c0-.3.1-.8,0-1.1,0-.5-.1-.8-.7-.6l-.4,2.4h-1.7l-.5-2.4-.8,2.9h-1.4s0,0,0-.1c0-.3.1-.9.1-1.3,0-.5-.1-1-.8-.8h0v2.7l-2,.4-.3-1.2-.3-1.2c-1,.5-.2,2.6-.6,3l-1.7.4c0-1.6-.2-3.4-.4-4.9,0-.4,0-1.9-.6-1.9v7l-1.7.5-.5-2.4c-1.2,1.6.5,3.5-2.6,3.1.3-.4.1-3.3-.7-2.4v2.7l-2.1.4c-.2-.2.4-2.2-.7-2.4l-.4,2.7h-1.7c-.2-.2.4-2.2-.7-2.4v2.7h-2.4v-6c0-.3-.6-1-.4-1.5h-.7v7.4l-2,.5v-3.1l-1.2,3-1.4-.3-.2-2.4-1.1,2.4h-1.7c-.2-.9.8-1.9-.2-2.7l-.8,2.6-2.1-.2v-3.1c-1,0-.9,2.6-1,2.7-1.6,0-2.8.4-2.7-1.5,0-1.8.8-3.8.7-5.7-.9-.2-.6,0-.8.7-.7,1.6-.7,4-.9,5.8l-1.9-.3.2-2.8c-1.5-.2-.8,2.2-1,2.4l-2.4-.4.7-3.4c-1.3-.3-.9,2.8-1.4,3.1-.5,0-1.2-.1-1.7-.4-.2-.2-.3-.4-.3-.6l.3-2.9c-.1,0-.2.1-.3.2v-.4c-.9.2-1.1,2.9-1.4,3.1l-1.4-.3c0-.7,1.2-3.3.3-3.3,0-.1-.2-.2-.3-.2-.5,0-1,2.2-.9,2.7l-2.8-.6,1.7-6.7c-.1,0-.2,0-.3,0v-.2c-.9-.2-.6.2-.8.7-1,1.7-1.6,3.6-2.2,5.5l-1.7-.6c1-2,1.1-3.3.6-3,0-.6-.8-.1-1.9,2.2l-1.9-.6,1-2.6c-.1,0-.3,0-.4,0v-.2c-1-.3-1.4,2-1.8,2.1l-1.5-.7c.8-.7,1.1-1.5,1-2.6,0-.1-.2-.1-.3,0,0,0,0,0,0-.1-.4-.5-1.3,1-1.6,1.9,0,.2-.1.4-.1.5l-1.6-.6,1-2.6-.2.2v-.2c0,0-.5.6-.5.6l.3-.8-1.9,2-1.1-.4,1.7-7.2s0,0-.1,0h0c-.1,0-.2,0-.3,0v-.2c-.7-.1-.8.3-1,.8-.5,1-1.4,5.9-2.2,6l-1.1-.5.7-2.7-.2.3v-.3c0,0-.6,1.1-.6,1.1l.3-1.3-1.4,2.4-1.3-.2.7-2.6s0,0-.1,0h0c-.2,0-.3.2-.5.4l.2-.6c-1.2.7-.7,2.6-2.3,2.5v-2.3c-.2,0-.3,0-.4,0,0,0,0,0,0,0v-.2c-1.2-.3-.6,1.7-1.1,2h-.9v-2.5c-.1,0-.2,0-.3,0,0,0,0,0-.1,0v-.2c-1.4-.4-.4,2.1-.7,2.4-.9,0-1.4,0-1.8,0-.3-.4.1-1.1.2-2.3,0-1.9.1-3.8,0-5.7,0,0-.1,0-.2,0,0,0-.1,0-.2,0,0,0,0-.1,0-.2-.3,0-1,.3-1,.5v7.2l-.7.4c-1.7-2.8-3.8-4.7-6.2-5.9-7.1-3.8-16.6-1.4-23.9,2.7-1.3.8-2.6,1.6-4,2.6-.8.6-1.6,1.2-2.3,1.9-3.3,3-6.3,6.7-7.5,10.8-.8,2.5-1,5.1-.2,7.8.2.6.6,1.2.8,1.8-6.4-9.4,3.4-20.6,11.6-25.4,3.9-2.3,9-4.1,14.4-5.2,9.1-1.8,19.1-2,26.5-.6,3.3.6,6.5,1.7,9.7,2.9,5.7,2.3,11.3,5.2,17.1,7.6,0-.1,0-.3-.1-.4,0,0,.1,0,.2,0,6.4,2.7,12.9,4.7,19.9,4.4Z"/>
  <path class="st0" d="M158.5,129.1h0c11.3-2.5,20.5-12.6,20.5-27.5s-6.6-26.2-20.5-32.4c-4.2-1.9-9-2.9-14.5-2.9h-67.9v124.6h70.1c23.5,0,35.2-15.1,35.2-32.5s-10.1-27.3-22.8-29.3ZM145.7,165c-1.8,1.9-3.7,3.1-5.5,4.1-10.5,5.5-22.1-1.3-33.4-5.1-3.3-1.1-6.5-2-9.7-2.2-.6,0-1.2,0-1.9,0-2.7-.1-5.4,0-8.1,0v-1.7c2.7-.2,5.4-.3,8.1-.1,4.7.3,8,1.8,11.5.8,1.7-.5,3.4-1.5,5.4-3.6.5-.6,1.1-1.2,1.6-1.8,3.3-4,5.5-8.1,8.2-11.7.6-.8,1.2-1.5,1.8-2.2,2.8-3.1,6.4-5.6,12.3-7.2,1.2-.3,2.7-.4,4.1-.5,2.4-.3,4.6-1,4.4-4.2,0-2.2-2-3.2-4.4-3.9-2.8-.7-6.2-.9-8.3-1.8-3.2-1.3-5.8-3.3-7.9-5.6-.5-.5-1-1.1-1.4-1.6-3.2-4-5.7-8.6-8.8-12.5-.3-.4-.6-.8-.9-1.1-2.1-2.5-4.1-3.7-6-4.2-3.5-.9-6.9.4-11.5.8h-.6c-2.3.1-4.8,0-7.5,0v-1.8c2.6.2,5.3.3,8.1,0h1.2c14.8-1.1,29.8-14.5,43.7-7.2,1.8.9,3.5,2.2,5.2,3.8,12,11.6,1.7,23,1.8,35.7,0,12.3,9.9,23.2-1.5,34.8Z"/>
</svg>