<?xml version="1.0" encoding="UTF-8"?>
<svg id="Layer_1" xmlns="http://www.w3.org/2000/svg" version="1.1" viewBox="0 0 363.3 160.2">
  <!-- Generator: Adobe Illustrator 29.6.1, SVG Export Plug-In . SVG Version: 2.1.1 Build 9)  -->
  <path d="M20,147.2c-1.2-1.1-3.1-2-5.7-2.7-.6-.2-1.3-.3-2-.5s-1.4-.4-1.8-.5c-.4-.1-.9-.3-1.4-.4-.5-.2-.9-.3-1.2-.4s-.5-.3-.8-.5c-.3-.2-.4-.4-.5-.7,0-.2-.1-.5-.1-.8,0-.9.4-1.6,1.1-2.2.7-.5,1.8-.8,3.1-.8,3,0,4.7,1.3,4.9,3.8h5.4c0-2.7-1-4.8-2.8-6.2-1.8-1.4-4.1-2-7.1-2s-5.4.7-7.2,2.1c-1.8,1.4-2.7,3.3-2.7,5.6s0,1.4.3,2c.2.6.4,1.1.6,1.6.2.4.6.8,1.1,1.2s.9.7,1.2.9c.3.2.9.5,1.6.7.7.3,1.3.5,1.6.6.3.1.9.3,1.8.5.1,0,.2,0,.3,0s.2,0,.3,0c0,0,.2,0,.3,0,2.5.7,4.2,1.3,5,1.7.8.4,1.2,1.1,1.2,2s-.4,1.9-1.3,2.5c-.9.6-2,.9-3.5.9-3.8,0-5.7-1.6-5.8-4.9H0c0,2.9,1,5.2,3,6.8,2,1.6,4.7,2.4,8.2,2.4s2.7-.1,3.9-.4c1.2-.3,2.3-.8,3.4-1.4,1-.6,1.9-1.5,2.5-2.6.6-1.1.9-2.4.9-3.9s-.6-3.6-1.9-4.7Z"/>
  <path d="M20.8,141.5h0s0,0,0,0h0Z"/>
  <rect x="27.2" y="133.8" width="5.7" height="25.8"/>
  <polygon points="59.4 138.1 59.4 133.8 59.4 133.8 39 133.8 39 138.6 51.9 138.6 38 155 38 159.6 59.9 159.6 59.9 154.7 45.4 154.7 59.4 138.1"/>
  <polygon points="70.9 148.5 83.5 148.5 83.5 144 70.9 144 70.9 138.4 84.6 138.4 84.6 133.8 65.2 133.8 65.2 159.6 84.8 159.6 84.8 154.8 70.9 154.8 70.9 148.5"/>
  <path d="M113.7,155.4c-2.1,0-3.7-.8-5-2.4-1.2-1.6-1.9-3.7-1.9-6.4s.2-2.9.7-4.2c.4-1.3,1.2-2.4,2.3-3.2,1.1-.9,2.4-1.3,4-1.3s2.8.4,3.8,1.2c1,.8,1.6,1.9,1.9,3.3h5.5c-.2-2.7-1.4-4.9-3.4-6.6-2.1-1.7-4.7-2.6-7.7-2.6s-6.9,1.3-9.2,3.8-3.5,5.8-3.5,9.6,1.1,7.4,3.4,9.8c2.3,2.5,5.3,3.7,9,3.7s6.2-1,8.2-2.9c2-1.9,3.1-4.5,3.4-7.7h0s-5.6,0-5.6,0c-.5,3.9-2.5,5.8-5.9,5.8Z"/>
  <path d="M143.8,133.7h-5.8l-9.8,25.8h5.8l2.1-5.8h9.6l2,5.8h5.9l-9.8-25.8h0ZM137.5,149.7l3.4-9.6,3.4,9.6h-6.8Z"/>
  <polygon points="163.4 133.8 157.8 133.8 157.8 159.6 176 159.6 176 154.7 176 154.7 163.4 154.7 163.4 133.8"/>
  <path d="M192.8,155.4c-2.1,0-3.7-.8-5-2.4-1.2-1.6-1.8-3.7-1.8-6.4s.2-2.9.6-4.2c.4-1.3,1.2-2.4,2.3-3.2s2.4-1.3,4-1.3,2.8.4,3.8,1.2c1,.8,1.7,1.9,1.9,3.3h5.5c-.2-2.7-1.4-4.9-3.4-6.6-2.1-1.7-4.6-2.6-7.7-2.6s-6.9,1.3-9.2,3.8-3.5,5.8-3.5,9.6,1.1,7.4,3.4,9.8c2.3,2.5,5.3,3.7,9,3.7s6.2-1,8.1-2.9c2-1.9,3.1-4.5,3.4-7.7h0s-5.6,0-5.6,0c-.5,3.9-2.5,5.8-5.9,5.8Z"/>
  <path d="M226.4,149.2c0,2.1-.4,3.7-1.1,4.7-.7,1-2,1.5-4.1,1.5s-3.6-.5-4.4-1.5c-.8-1-1.2-2.6-1.2-4.7v-15.4h-5.6v15.4c0,3.7.9,6.4,2.7,8.2,1.8,1.8,4.7,2.7,8.4,2.7s6.5-.9,8.3-2.6,2.7-4.5,2.7-8.2v-15.5h-5.6v15.4Z"/>
  <polygon points="232 133.8 232 133.8 232 133.8 232 133.8"/>
  <polygon points="244.5 133.8 238.8 133.8 238.8 159.6 257.1 159.6 257.1 154.7 257.1 154.7 244.5 154.7 244.5 133.8"/>
  <path d="M269.3,133.7l-9.8,25.8h5.8l2.1-5.8h9.6l2,5.8h5.9l-9.8-25.8h-5.8ZM268.7,149.7l3.4-9.6,3.4,9.6h-6.8Z"/>
  <polygon points="284.3 138.6 292.1 138.6 292.1 159.6 297.8 159.6 297.8 138.6 305.5 138.6 305.5 133.8 284.3 133.8 284.3 138.6"/>
  <path d="M322.1,133.2c-3.9,0-7,1.2-9.3,3.7-2.3,2.5-3.5,5.8-3.5,9.8s1.2,7.3,3.5,9.8c2.3,2.5,5.5,3.7,9.2,3.7s6.8-1.2,9.2-3.7c2.3-2.5,3.5-5.7,3.5-9.8s-1.2-7.3-3.5-9.8c-2.3-2.5-5.4-3.7-9.1-3.7ZM327.2,153.1c-1.2,1.6-2.9,2.4-5.1,2.4-2.2,0-3.9-.8-5.2-2.4s-1.9-3.8-1.9-6.5.6-4.8,1.9-6.4c1.3-1.6,3-2.4,5.1-2.4h0c2.1,0,3.9.8,5.1,2.4,1.2,1.6,1.9,3.7,1.9,6.4s-.6,4.9-1.9,6.5Z"/>
  <polygon points="322.1 133.2 322.1 133.2 322.1 133.2 322.1 133.2"/>
  <path d="M362.8,158.8c-.1-.4-.3-.8-.3-1.3,0-.5-.1-1-.2-1.4,0-.4,0-.9-.1-1.5,0-.6,0-1,0-1.1-.3-3.5-1.6-5.5-3.8-6,1.3-.5,2.3-1.3,3-2.4.7-1.1,1.1-2.4,1.1-3.9,0-2.5-.8-4.3-2.4-5.5-1.6-1.2-3.7-1.8-6.3-1.8h-12.8s0,25.8,0,25.8h5.6v-10.1h5c1.8,0,3.1.4,3.8,1,.7.7,1.2,2,1.4,3.8,0,0,0,.6.1,1.5s.2,1.7.2,2.3c0,.6.2,1.1.4,1.5h5.9c-.2-.2-.4-.4-.5-.8ZM355.5,144.6c-.9.5-2.1.7-3.7.7h-5.4v-7.1h5.6c1.5,0,2.6.2,3.5.7.9.5,1.3,1.4,1.3,2.8s-.4,2.4-1.3,2.9Z"/>
  <path d="M146.2,83.1h16.5l21,42h37l-25.5-46c11.8-4.1,24.9-15.7,25-37.4,0,0,0,0,0,0,8,2.2,16.4,3.5,24.2,2.7,4.8-.5,9.4-1.9,13.9-3.2l-31.5,83.8h36.6l6.2-18h49.4l6.2,18h36.6L314.6,0h-40.7l-10.2,27.1h0c-7.3,1.7-14,4.9-23,5.5-8.5.6-15.5-1.5-22.3-4.4,0,0,0,0,0,0h0c-1.3-.5-2.6-1.1-3.9-1.7,1.3.6,2.6,1.1,3.8,1.7C213.2,11.7,198.8,0,176.7,0h-62.7v125.2h32.3v-42ZM147.1,61.3h-1s0,0,0,0h0s0,0,0,0h0s.2.9.2.9c-2.9-2.5-4.6-6-6.6-9.1,6.1,3,12.9,3.4,19.3,1.9h-.1s0,0,.1,0c8.7-2.1,16.6-7.8,21-15.8l2.8-7.6c1.4,4,3.9,7.8,3.4,12.3l-1.4-1.7h0s0,0,0,0l1,4.4-1.7-1.4s0,0,0,0h0c-.1,1.2,1.2,3.1.5,4-.2.2-.4.4-.9.4-.2-.1-.2-2.3-1.4-2,0,0,0,0,0,0,0,0,0,0,0,0-.2,1.3,1.5,2.5.9,3.6-.1.1-.3.3-.4.4l-3.2-5.7s0,0,0,0h0c-.6,1.5,1.8,4.7,2.2,6.4,0,.3,0,.6,0,.8-.3.4-.6.7-1,.9-.2.1-.5.1-.8,0,0-.2,0-.5,0-.7-.2-.6-.6-1.1-1.3-1,0,0,0,0,0,0,0,0,0,0,0,0,0,.3.3.8.6,1.3.3.6.5,1.1.3,1.4-.1.2-.5.4-.7.7l-1.2-1.6-.4-.5h0c0,0,0,0,0,0v.5c.1,0,.1,0,.1,0,0,0,0,0,0,0l.5,2-1.2.8-1.4-2s0,0,0,0h0c-.3.1-.4.3-.3.6,0,.6.5,1.4.5,2.1,0,.3-.1.6-.4.7-.7.3-.9-2-1.9-2.1h0s0,0,0,0h0s0,0,0,0l.7,2.5-1.5.9c-.3,0-1.6-4-2.8-4.9-.1-.1-.3-.2-.4-.2h0s0,0,0,0v.2c0,0,.1,0,.1,0h0l2.3,5.4-2,.9c-.3-1.6-.7-2.1-1-2-.1,0-.2.2-.2.5,0,.5.2,1.3.8,2.1l-1.3.2-1.2-1.9s0,0,0,0h0c-.3.1-.4.3-.4.5,0,.6.6,1.4.6,1.9,0,0,0,.2,0,.3l-1.3.4c-.1-.9-.4-2-1.4-2.4h0s0,0,0,0h0s0,0,0,0l.5,2.7-1.8.3-1.4-2h0c0,0,0,0,0,0h0c0,0,0,0,0,0l.7,2.4-1.8.3c-.4,0-.5-.5-.6-.7-.2-.3-1.9-5.3-2.8-5.1,0,0-.1,0-.2,0h0s0,0,0,0l2,5.8-2,.3c-.2-.9-.4-2-1.4-2.4h0s0,0,0,0h0s0,0,0,0l.3,2.4c-2.7.5-2.4-1.2-3.7-2.7h0s0,0,0,0h0s0,0,0,0l.3,2.4c-1.7.2-2-1.7-2.9-2.7h0s0,0,0,0h0v2c-1.2-.6-1.5-1.5-1.9-2.7ZM165,21.9c.8,0,1.7-.1,2.6,0,6.1,0,12.4,2.2,13.5,8.6,0,0,0,0,0,0,0,.6.1,1.1.2,1.7-.9-.7-1.4-1.6-2-2.6-.4-.7-.8-1.5-1.3-2.1-1.5-1.8-3.5-2.9-5.9-3.4-.9-.2-1.9-.3-3-.3-.5,0-1,0-1.6,0-1.1,0-2.1.2-3.2.5-.5.1-1.1.3-1.7.4-1.1.3-2.2.7-3.3,1.1-.6.2-1.1.5-1.7.7-1.1.5-2.2,1.1-3.2,1.7-3.2,1.8-6.1,4.1-8.3,6.5-2.4,2.7-4,5.5-4.3,8.3,0,.5,0,1,0,1.4,0,3,1.4,4.8,2.8,7.7-10.6-4.2-4.1-15,1.6-20.6h0c.1-.2.3-.3.4-.5,1-.9,2.2-1.9,3.6-2.8,4.4-3.1,10.2-5.9,14.7-6.2ZM178.5,33.9c-.8.2-1.1-.9-1.5-1.4-1.2-1.7-1.8-3.1-3.1-4.2h0s0,0,0,0c0,0,0,0,0,0,0,0,0,0,0,0,0,0,0,0,0,0,0,0,0,0,0,0-.3-.3-.6-.5-1-.7-.4-.2-.8-.4-1.3-.6-3.8-1.5-8.7-.8-13.3,1.3-4.9,2.2-9.5,5.7-12.1,9.5-.6.9-1.1,1.8-1.5,2.6-1.7,3.9-.7,4.9.6,8.7-.6-.4-1.1-.9-1.5-1.4-2.8-3.4-.2-8.2,2.5-11.5h0c.2-.3.3-.5.4-.6,2.2-2.5,5.6-5.2,9.3-7.3h0c3.5-1.9,7.2-3.3,10.3-3.5,4.8-.4,9.6.6,11.5,4.4h0s0,0,0,0c.6,1.3.9,2.9.7,4.8ZM146.3,52.2c-.6-.4-.9-1-1.6-2.2.5.1,1,.2,1.6.3h0c12,2.1,26.7-6,29.5-18.1l2,3c.2.9-.4,1.7-.8,2.4-4.6,8.4-19,15.8-28.4,15.1-1.2,0-1.8-.2-2.3-.5ZM146.2,41.5h0c-.1.3-.2.7-.2,1.1s0,.9.2,1.2h0s0,0,0,0c.3,1,.9,2,1.2,3-.4-.1-.8-.3-1.2-.5-2.4-1.4-1.4-4.5,0-6.7h0c.2-.4.4-.7.6-1,0,.9-.4,1.8-.7,2.8,0,0,0,0,0,0ZM160.9,28.2h0c1.6-.6,3.1-1,4.5-1.1.5,0,1.1,0,1.7,0,1.8,0,3.8.3,5.2,1.2,1.6.9,2.6,2.3,2.2,4.7-1.3-1.8-2.6-4.1-4.9-4.6-.2,0-.3,0-.5,0-1.6-.3-3.2-.2-4.8,0-6.1.9-12.2,5.2-16.3,9.2-.2-.6.3-.8.7-1.2,2.5-3,7.5-6.3,12.1-8ZM146.3,47.6c10.6,2.8,22.9-4.8,26.8-14.8,2.5,1.4.4,3.6-.8,5.2-4.1,5.8-11.7,10.2-18.7,11.4-2.2.4-6.3,1.2-7.4-1.2v-.7ZM163,35h0c-1.1.2-5.6,3.6-7.2,4.5-.8.4-1.7,1-2.6,1,1.2-2.5,8.6-7.2,11.1-6.9,1.2.2,1,1.6.2,1.9-.4.2-.7-.7-1.5-.5ZM163.8,36.1h0c.2,1.2-8.4,6.5-10.1,6.7l-.5-1.3c3.5-.7,6.7-4.3,9.7-5.5.4-.2.8-.3.9.2ZM165.9,34.9c2.4.9-1.1,3.8-2.2,4.8-3.3,2.9-8.3,5.7-12.8,5.8l-.4-1.3c6.1-.4,12.4-3.9,15.4-9.2ZM164.5,32.7h0c-3-.4-12.1,5.2-12.6,8.3-.1.9.9,1.6.3,2-.6.3-2.1.4-2.4-.4-.2-.9.3-1.6.7-2.3,2-3.8,10.6-9.3,14.9-9.4,4.7,0,2.3,4.7,1.8,4.3-.3-1.3-1.4-2.4-2.7-2.6ZM169.3,33.2l1.6,2c-3.5,5.4-9.9,10.1-16.3,11.5-1.7.4-5.2,1.3-6.2-.5,8.2,1.4,18.3-5.3,20.9-13ZM149.8,37.1c4.1-4.6,14.5-10.2,20.6-7.6,2.5,1,2.1,2.9,1.3,5.1-2.7-3.9-4.4-5.3-9.3-4-3.6.9-13.4,7.5-13.6,11.4,0,.8,1.2,3.3,1,3.6-5-1.2-2.3-5.8,0-8.4ZM141.6,52c1.6.4,3.1,1.1,4.7,1.4h0c.4,0,.9.2,1.3.2,12.2,1.2,30.4-8.6,32-21.8,2.1,1.5.8,3.7,0,5.6-5,10.4-18.7,18.2-30.2,17.3-.8,0-1.9-.2-3-.4-1.4-.3-2.9-.8-3.8-1.5-.3-.2-.6-.5-.8-.8ZM284.7,39.7h0s-2.6-.4-2.6-.4l3.2-10.2h0s2.1,1,2.1,1l-2.8,9.6ZM310.1,79h-31.7l16-47.1,15.8,47.1ZM238.5,33.9c8.7-.4,15.4-3,23.4-5.4.4-.1.9-.2,1.3-.4,0,0,0,0,0,0h0c3.4-.9,7-1.3,10.5-1.2,3.5.1,7.1.7,10.5,1.8l-3.6,10.2-.7-.7h0l.2-1.7h0s0,0,0,0l-1.3,1.9-.7-.3.3-1.9c0-.1-.2-.2-.3-.2-.6,0-1,2.1-1.1,2.2l-1.3-.5.3-1.9c-.1,0-.3,0-.4,0-.7.2-.7,1.8-1.1,2h-1.3c0,0,.3-2.3.3-2.3,0,0,0,0,0,0h0c-1.3-.3-.7,1.7-1.3,2.2l-1.3-.2.3-7.5c-.2,0-.4,0-.5,0-.3,0-.1.1-.2.5-.4,2.4-.3,4.9-.7,7.3h-2c-.3-.2.5-2.2-.5-2.1,0,0-.1,0-.2,0l-.4,2.4h-1.7l-.5-2.4h0s0,0,0,0l-.8,2.9h-1.4c-.3-.1.5-2.3-.5-2.3,0,0-.1,0-.2,0v2.7s-2,.4-2,.4l-.2-1.2-.3-1.2c-1,.5-.2,2.6-.6,3l-1.7.4c0-1.6-.2-3.4-.4-4.9,0-.4-.1-1.9-.6-1.9v7l-1.7.5-.5-2.4c-1.2,1.6.5,3.5-2.6,3.1.3-.4.1-3.2-.7-2.4v2.7l-2.1.4c-.2-.2.4-2.2-.7-2.4l-.3,2.7h-1.7c-.2-.2.4-2.2-.7-2.4v2.7h-2.4v-6c0-.3-.6-1-.3-1.5h-.7v7.4l-2,.5v-3.1l-1.2,3-1.3-.3-.2-2.4-1.1,2.4h-1.7c-.2-.9.8-1.9-.2-2.7l-.8,2.6-2.1-.2v-3.1c-1,.1-.9,2.6-1,2.7-1.6,0-2.8.4-2.7-1.5,0-1.8.8-3.8.7-5.6-.9-.2-.6.1-.8.7-.7,1.6-.7,4-.9,5.8l-1.9-.3.2-2.8c-1.5-.2-.8,2.2-1,2.4l-2.4-.3.7-3.4c-1.3-.3-.9,2.8-1.4,3.1h0c-.8,0-2.3-.3-2.3-1.2l.3-2.9s0,0,0,0h0c-.9.2-1.1,2.9-1.4,3.1l-1.7-.3c-.3-.3,1.3-3.5.2-3.4,0,0,0,0,0,0,0,0,0,0,0,0-.5,0-1,2.2-.9,2.7l-3.1-.7,1.7-6.8c-.1,0-.2,0-.3,0-.6,0-.3.3-.6.7-1,1.7-1.6,3.6-2.2,5.5l-2-.7c1-1.9,1.1-3.1.8-3.1-.3,0-.9.7-1.7,2.4l-2.2-.7,1-2.7c0,0-.1,0-.2,0-.9,0-1.4,2-1.7,2.1l-1.8-.9c.8-.7,1.1-1.5,1-2.6,0,0-.1,0-.2,0-.5,0-1.2,1.2-1.4,2,0,.2-.1.4-.1.5l-2-.7,1-2.7h0s0,0,0,0h0s0,0,0,0l-1.9,2-1.5-.5,1.7-7.3c0,0-.2,0-.2,0,0,0,0,0,0,0-.5,0-.6.4-.8.9-.5,1-1.4,5.9-2.2,6l-1.5-.7.7-2.7h0s0,0,0,0h0s0,0,0,0l-1.4,2.4-1.7-.3.7-2.7s0,0,0,0h0s0,0,0,0h0c-1.2.7-.8,2.4-2.1,2.5-.2,0-.4,0-.6,0v-2.4c-.1,0-.3,0-.4,0,0,0,0,0,0,0-.7.2-.3,1.7-.7,2h-1.3c0,0,0-2.7,0-2.7,0,0-.2,0-.2,0,0,0,0,0,0,0-1,0-.2,2.1-.5,2.4-.4,0-.7,0-1,0-2,0-1.1-.8-1-2.6,0-1.9.1-3.8,0-5.7,0,0,0,0-.1,0,0,0,0,0,0,0-.3,0-.9.4-.9.5v7.2l-.8.5c-3.3-5.6-8.3-7.9-13.8-8-5.4-.1-11.3,1.9-16.2,4.7-1.3.8-2.6,1.6-4,2.6-.8.6-1.6,1.2-2.3,1.9-5.3,4.8-9.6,11.4-7.6,18.3.3,1,1.1,1.9,1.1,2.9-7.8-9.6,2.4-21.4,10.9-26.4,9.9-5.9,27.1-7.9,39-6.3.8.1,1.5.2,2.3.4,3.3.7,6.5,1.7,9.7,2.9,5.7,2.2,11.4,5.2,17.1,7.6,6.4,2.7,12.9,4.7,19.9,4.4ZM210,24.5c-2.8-1.3-5.5-2.5-8.5-3.6,0,0,0,0,0,0h0c2.9,1.1,5.7,2.3,8.5,3.6Z"/>
  <path d="M84,63h0c11.3-2.5,20.5-12.6,20.5-27.5s-6.6-26.2-20.5-32.4c-4.2-1.9-9-2.9-14.5-2.9H1.6v124.6h70.1c23.5,0,35.2-15.1,35.2-32.5s-10.1-27.3-22.8-29.3ZM71.5,98.7h0c-1.8,1.9-3.7,3.2-5.5,4.2-10.5,5.5-22.1-1.3-33.4-5.1h0c-3.2-1.1-6.5-2-9.7-2.2-.6,0-1.2,0-1.9-.1-2.7-.1-5.4,0-8.1.1v-1.7c2.7-.2,5.4-.3,8.1-.1h0c4.7.3,8,1.8,11.5.8,1.7-.5,3.4-1.5,5.4-3.6.5-.6,1.1-1.2,1.6-1.8,3.3-4,5.5-8.1,8.2-11.7.6-.8,1.2-1.5,1.8-2.2,2.8-3.1,6.4-5.6,12.3-7.2,1.2-.3,2.7-.4,4.1-.5,2.4-.3,4.6-1,4.4-4.2-.1-2.2-2-3.2-4.4-3.9-2.8-.7-6.2-.9-8.3-1.8-3.2-1.3-5.8-3.3-7.9-5.6-.5-.5-1-1.1-1.4-1.6-3.2-4-5.7-8.6-8.8-12.5-.3-.4-.6-.8-.9-1.1-2.1-2.5-4.1-3.7-6-4.2-3.5-.9-6.9.4-11.5.8-.2,0-.4,0-.6,0-2.3.1-4.8,0-7.5-.1v-1.8c2.6.2,5.3.3,8.1.1.4,0,.8,0,1.2,0,14.8-1.1,29.8-14.5,43.7-7.2,1.8.9,3.5,2.2,5.2,3.8,12,11.6,1.7,23,1.8,35.7.1,12.3,9.9,23.2-1.5,34.8Z"/>
</svg>