<?xml version="1.0" encoding="UTF-8"?>
<svg width="500" height="400" viewBox="0 0 500 400" fill="none" xmlns="http://www.w3.org/2000/svg">
  <!-- FAQ Letters -->
  <g opacity="0.8">
    <path d="M120 250H180V310C180 320 170 330 160 330H140C130 330 120 320 120 310V250Z" fill="#F2F2F2"/>
    <path d="M120 250V220C120 210 130 200 140 200H160C170 200 180 210 180 220V250H120Z" fill="#F2F2F2"/>
    <path d="M120 250H180" stroke="#CCCCCC" stroke-width="2"/>
    
    <path d="M200 200H260C270 200 280 210 280 220V240C280 250 270 260 260 260H220V330" fill="none" stroke="#F2F2F2" stroke-width="20" stroke-linecap="round"/>
    
    <path d="M300 200H360C370 200 380 210 380 220V240C380 250 370 260 360 260H320V330" fill="none" stroke="#F2F2F2" stroke-width="20" stroke-linecap="round"/>
  </g>
  
  <!-- Person figure -->
  <g transform="translate(250, 240)">
    <!-- Body -->
    <path d="M0 -100C27.6142 -100 50 -77.6142 50 -50C50 -22.3858 27.6142 0 0 0C-27.6142 0 -50 -22.3858 -50 -50C-50 -77.6142 -27.6142 -100 0 -100Z" fill="#F2C94C"/>
    <path d="M-10 -50V60C-10 65.5228 -5.52285 70 0 70C5.52285 70 10 65.5228 10 60V-50H-10Z" fill="#F2C94C"/>
    <path d="M-50 0H50" stroke="#F2C94C" stroke-width="20" stroke-linecap="round"/>
    
    <!-- Head -->
    <circle cx="0" cy="-120" r="30" fill="#333333"/>
    
    <!-- Eyes -->
    <circle cx="-10" cy="-125" r="5" fill="white"/>
    <circle cx="10" cy="-125" r="5" fill="white"/>
    
    <!-- Mouth -->
    <path d="M-15 -105C-10 -100 10 -100 15 -105" stroke="white" stroke-width="2" stroke-linecap="round"/>
  </g>
  
  <!-- Question marks -->
  <g>
    <text x="80" y="100" font-size="80" font-weight="bold" fill="#F2C94C" opacity="0.3">?</text>
    <text x="380" y="150" font-size="100" font-weight="bold" fill="#F2C94C" opacity="0.3">?</text>
    <text x="200" y="80" font-size="60" font-weight="bold" fill="#F2C94C" opacity="0.3">?</text>
    <text x="320" y="300" font-size="90" font-weight="bold" fill="#F2C94C" opacity="0.3">?</text>
  </g>
</svg>
