<svg width="800" height="600" viewBox="0 0 800 600" fill="none" xmlns="http://www.w3.org/2000/svg">
  <rect width="800" height="600" fill="white"/>
  <g transform="translate(100, 50)">
    <!-- Laptop base -->
    <rect x="50" y="400" width="500" height="20" rx="5" fill="#333"/>
    <!-- Laptop body -->
    <rect x="75" y="150" width="450" height="250" rx="10" fill="#555"/>
    <!-- Laptop screen -->
    <rect x="100" y="175" width="400" height="200" rx="2" fill="#235789"/>
    
    <!-- Code on screen -->
    <rect x="120" y="195" width="150" height="10" rx="2" fill="#F1D302" opacity="0.8"/>
    <rect x="120" y="215" width="120" height="10" rx="2" fill="#F1D302" opacity="0.8"/>
    <rect x="140" y="235" width="180" height="10" rx="2" fill="#F1D302" opacity="0.8"/>
    <rect x="140" y="255" width="160" height="10" rx="2" fill="#F1D302" opacity="0.8"/>
    <rect x="120" y="275" width="200" height="10" rx="2" fill="#F1D302" opacity="0.8"/>
    <rect x="140" y="295" width="140" height="10" rx="2" fill="#F1D302" opacity="0.8"/>
    <rect x="120" y="315" width="180" height="10" rx="2" fill="#F1D302" opacity="0.8"/>
    <rect x="140" y="335" width="160" height="10" rx="2" fill="#F1D302" opacity="0.8"/>
    
    <!-- Keyboard -->
    <rect x="100" y="375" width="400" height="25" rx="2" fill="#444"/>
    <rect x="150" y="380" width="300" height="15" rx="2" fill="#333"/>
    
    <!-- Laptop logo -->
    <circle cx="300" cy="275" r="15" fill="#f2c94c"/>
  </g>
</svg>
